# xmcd CD database file
#
# Track frame offsets:
#	150
#	20752
#	42200
#	59910
#	80895
#	116442
#	134962
#	152290
#	168332
#	191555
#	210585
#	245712
#	257434
#	272430
#
# Disc length: 3847 seconds
#
# Revision: 0
# Processed by: cddbd v1.5PL3 Copyright (c) Steve Scherf et al.
# Submitted via: CDex 1.51
#
DISCID=cb0f050e
DTITLE=Nucklebusters Blues Band - one more chance
DYEAR=1999
DGENRE=Blues
TTITLE0=Chicago Bound
TTITLE1=Killing Floor
TTITLE2=Love At First Sight
TTITLE3=Blues For Nance
TTITLE4=Breakin' Up Somebody's Home
TTITLE5=I Feel So Good
TTITLE6=When The Blues Gets A Hold of You
TTITLE7=T-Bone Boogie
TTITLE8=Too Many Drivers
TTITLE9=Come On In My Kitchen
TTITLE10=Therm Blues
TTITLE11=One More Chance
TTITLE12=Can't Get Next to You
TTITLE13=Just Like A Woman
EXTD=YEAR: 1999
EXTT0=
EXTT1=
EXTT2=
EXTT3=
EXTT4=
EXTT5=
EXTT6=
EXTT7=
EXTT8=
EXTT9=
EXTT10=
EXTT11=
EXTT12=
EXTT13=
PLAYORDER=
